<?xml version="1.0" encoding="utf-8"?>
<!-- Generator: Adobe Illustrator 25.4.0, SVG Export Plug-In . SVG Version: 6.00 Build 0)  -->
<svg version="1.1" xmlns="http://www.w3.org/2000/svg" xmlns:xlink="http://www.w3.org/1999/xlink" x="0px" y="0px"
	 viewBox="0 0 2000 1000" style="enable-background:new 0 0 2000 1000;" xml:space="preserve">
<style type="text/css">
	.st0{fill:#333333;}
	.st1{font-family:'Cambria';}
	.st2{font-size:28px;}
	.st3{font-family:'NunitoSans-SemiBold';}
	.st4{font-size:26px;}
	.st5{font-size:250px;}
</style>
<g id="Capa_1">
	<g>
		<g>
			<g>
				<path class="st0" d="M252.5,223.9c0.7,0.6,1.1,1.6,1.1,2.8s-0.4,2.1-1.1,2.8c-0.7,0.6-1.8,1-3.1,1h-2v4.2h-2.1V223h4.1
					C250.8,222.9,251.8,223.3,252.5,223.9z M249.4,228.5c0.7,0,1.2-0.2,1.5-0.5s0.5-0.8,0.5-1.3s-0.2-1-0.5-1.4s-0.8-0.5-1.5-0.5h-2
					v3.7H249.4z"/>
				<path class="st0" d="M264.5,226.5c0,0.8-0.2,1.5-0.7,2.1s-1.1,1-2,1.2l3.1,4.8h-2.8l-2.6-4.6h-1.6v4.6h-2.1v-11.7h4.3
					c1.4,0,2.5,0.3,3.2,1C264.1,224.6,264.5,225.4,264.5,226.5z M259.9,228.6c0.8,0,1.4-0.2,1.8-0.5s0.6-0.8,0.6-1.4
					c0-0.6-0.2-1-0.5-1.4c-0.4-0.4-0.9-0.5-1.6-0.5H258v3.9h1.9V228.6z"/>
				<path class="st0" d="M267.4,222.9h2.1v11.7h-2.1V222.9z"/>
				<path class="st0" d="M275.9,222.9l3.2,6.9l3.2-6.9h2.9v11.7h-2.1v-8.9l-3.3,7.6h-1.4l-3.4-7.8v9.1h-2.1v-11.7L275.9,222.9
					L275.9,222.9z"/>
				<path class="st0" d="M291.3,222.9h2.7l3.8,11.7h-2.2l-0.8-2.5h-4.3l-0.8,2.5h-2.2L291.3,222.9z M291,230.5h3.3l-1.6-5L291,230.5
					z"/>
				<path class="st0" d="M308.6,226.5c0,0.8-0.2,1.5-0.7,2.1s-1.1,1-2,1.2l3.1,4.8h-2.8l-2.6-4.6H302v4.6h-2.1v-11.7h4.3
					c1.4,0,2.5,0.3,3.2,1C308.2,224.6,308.6,225.4,308.6,226.5z M304,228.6c0.8,0,1.4-0.2,1.8-0.5s0.6-0.8,0.6-1.4
					c0-0.6-0.2-1-0.5-1.4c-0.4-0.4-0.9-0.5-1.6-0.5H302v3.9h2V228.6z"/>
				<path class="st0" d="M312.6,222.9l2.6,4.7l2.7-4.7h2.5l-4.2,6.9v4.8h-2.1v-4.8l-4-6.9H312.6z"/>
				<path class="st0" d="M325.3,222.9h9.4v1.8h-3.6v9.8H329v-9.8h-3.6v-1.8H325.3z"/>
				<path class="st0" d="M337.6,222.9l2.6,4.7l2.7-4.7h2.5l-4.2,6.9v4.8h-2.1v-4.8l-4-6.9H337.6z"/>
				<path class="st0" d="M354.5,223.9c0.7,0.6,1.1,1.6,1.1,2.8s-0.4,2.1-1.1,2.8c-0.7,0.6-1.8,1-3.1,1h-2v4.2h-2.1V223h4.1
					C352.7,222.9,353.8,223.3,354.5,223.9z M351.4,228.5c0.7,0,1.2-0.2,1.5-0.5s0.5-0.8,0.5-1.3s-0.2-1-0.5-1.4s-0.8-0.5-1.5-0.5h-2
					v3.7H351.4z"/>
				<path class="st0" d="M362.3,222.7c0.8,0,1.5,0.1,2.1,0.4c0.6,0.3,1.2,0.6,1.7,1.1c1,1.1,1.5,2.6,1.5,4.5c0,2-0.5,3.5-1.5,4.6
					c-0.9,1-2.2,1.5-3.8,1.5c-1.6,0-2.9-0.5-3.8-1.5c-1-1.1-1.5-2.6-1.5-4.6s0.5-3.5,1.5-4.6C359.4,223.2,360.7,222.7,362.3,222.7z
					 M365.4,228.8c0-1.3-0.3-2.4-0.8-3.1s-1.3-1.1-2.3-1.1c-0.9,0-1.7,0.4-2.3,1.1c-0.6,0.7-0.8,1.8-0.8,3.1s0.3,2.4,0.8,3.1
					c0.6,0.7,1.3,1.1,2.3,1.1c0.9,0,1.7-0.4,2.3-1.1C365.1,231.2,365.4,230.1,365.4,228.8z"/>
				<path class="st0" d="M377.3,232.8c-0.5,1.4-1.5,2.1-2.9,2.1c-1.5,0-2.7-0.6-3.6-1.7c-1-1.1-1.5-2.6-1.5-4.4
					c0-1.9,0.5-3.4,1.6-4.5c1-1.1,2.3-1.6,3.9-1.6c1.1,0,2,0.2,2.7,0.7s1.3,1.2,1.7,2.2l-2.2,0.5c-0.6-1-1.4-1.5-2.4-1.5
					c-0.9,0-1.6,0.4-2.2,1.1c-0.6,0.8-0.9,1.8-0.9,3.1c0,1.2,0.3,2.2,0.8,3c0.5,0.7,1.3,1.1,2.2,1.1c0.8,0,1.4-0.2,1.9-0.7
					s0.8-1.2,0.8-2.1V230l-2.6-0.1v-1.4h4.7v6h-1.7L377.3,232.8z"/>
				<path class="st0" d="M391,226.5c0,0.8-0.2,1.5-0.7,2.1s-1.1,1-2,1.2l3.1,4.8h-2.8L386,230h-1.6v4.6h-2.1v-11.7h4.3
					c1.4,0,2.5,0.3,3.2,1C390.6,224.6,391,225.4,391,226.5z M386.4,228.6c0.8,0,1.4-0.2,1.8-0.5s0.6-0.8,0.6-1.4
					c0-0.6-0.2-1-0.5-1.4c-0.4-0.4-0.9-0.5-1.6-0.5h-2.2v3.9h1.9V228.6z"/>
				<path class="st0" d="M396.6,222.9h2.7l3.8,11.7h-2.2l-0.8-2.5h-4.3l-0.8,2.5h-2.2L396.6,222.9z M396.2,230.5h3.3l-1.6-5
					L396.2,230.5z"/>
				<path class="st0" d="M412.3,223.9c0.7,0.6,1.1,1.6,1.1,2.8s-0.4,2.1-1.1,2.8c-0.7,0.6-1.8,1-3.1,1h-2v4.2h-2.1V223h4.1
					C410.5,222.9,411.6,223.3,412.3,223.9z M409.2,228.5c0.7,0,1.2-0.2,1.5-0.5s0.5-0.8,0.5-1.3s-0.2-1-0.5-1.4s-0.8-0.5-1.5-0.5h-2
					v3.7H409.2z"/>
				<path class="st0" d="M417.7,222.9v4.9h5.1v-4.9h2.1v11.7h-2.1v-5h-5.1v5h-2.1v-11.7H417.7z"/>
				<path class="st0" d="M429.4,222.9l2.6,4.7l2.7-4.7h2.5l-4.2,6.9v4.8h-2.1v-4.8l-4-6.9H429.4z"/>
			</g>
			<g>
				<rect x="243.7" y="278.1" class="st0" width="676.9" height="3.2"/>
			</g>
			<g>
				<path class="st0" d="M1087.3,226.2c-0.2-1-0.9-1.5-2.2-1.5c-0.6,0-1.1,0.1-1.4,0.4c-0.3,0.2-0.5,0.5-0.5,0.9s0.1,0.6,0.3,0.8
					c0.2,0.2,0.6,0.4,1,0.5l2.5,1c0.9,0.3,1.5,0.8,2,1.3s0.7,1.1,0.7,1.9c0,1.1-0.4,1.9-1.2,2.5s-1.9,0.9-3.4,0.9
					c-1.3,0-2.3-0.3-3.2-1c-0.9-0.7-1.4-1.7-1.4-3h2.1c0,1,0.5,1.6,1.5,1.8c0.3,0.1,0.7,0.1,1.2,0.1s0.9-0.1,1.4-0.4
					c0.4-0.2,0.6-0.6,0.6-1s-0.1-0.7-0.3-1c-0.2-0.2-0.6-0.4-1.1-0.6l-2.3-0.9c-0.9-0.3-1.6-0.8-2.1-1.2c-0.5-0.5-0.7-1.1-0.7-1.9
					c0-1,0.4-1.7,1.1-2.3c0.8-0.6,1.8-0.9,3.1-0.9c1.3,0,2.3,0.3,3,0.9c0.7,0.6,1.1,1.5,1.2,2.5h-1.9V226.2z"/>
				<path class="st0" d="M1092.6,222.9h7.5v1.8h-5.4v3.1h5.1v1.8h-5.1v3.1h5.4v1.9h-7.5V222.9z"/>
				<path class="st0" d="M1107.3,222.7c0.7,0,1.3,0.1,1.9,0.3c0.5,0.2,1,0.4,1.4,0.7c0.8,0.6,1.2,1.5,1.5,2.6l-2.3,0.4
					c-0.2-0.6-0.5-1.1-0.9-1.5s-0.9-0.6-1.5-0.6c-0.8,0-1.5,0.3-2,1s-0.8,1.8-0.8,3.1s0.2,2.3,0.7,3.1c0.5,0.7,1.1,1.1,2,1.1
					s1.5-0.2,1.9-0.6c0.4-0.4,0.6-0.9,0.6-1.6h2.3c0,1.3-0.4,2.3-1.3,3s-2,1.1-3.4,1.1c-1.5,0-2.8-0.5-3.7-1.6
					c-0.9-1.1-1.4-2.6-1.4-4.5s0.5-3.4,1.4-4.5C1104.7,223.2,1105.9,222.7,1107.3,222.7z"/>
				<path class="st0" d="M1119,222.7c0.8,0,1.5,0.1,2.1,0.4c0.6,0.3,1.2,0.6,1.7,1.1c1,1.1,1.5,2.6,1.5,4.5c0,2-0.5,3.5-1.5,4.6
					c-0.9,1-2.2,1.5-3.8,1.5c-1.6,0-2.9-0.5-3.8-1.5c-1-1.1-1.5-2.6-1.5-4.6s0.5-3.5,1.5-4.6C1116.1,223.2,1117.4,222.7,1119,222.7z
					 M1122.1,228.8c0-1.3-0.3-2.4-0.8-3.1c-0.6-0.7-1.3-1.1-2.3-1.1s-1.7,0.4-2.3,1.1c-0.6,0.7-0.8,1.8-0.8,3.1s0.3,2.4,0.8,3.1
					c0.6,0.7,1.3,1.1,2.3,1.1s1.7-0.4,2.3-1.1S1122.1,230.1,1122.1,228.8z"/>
				<path class="st0" d="M1129.1,222.9l5.1,8.3v-8.3h2.1v11.7h-2.2l-5.3-8.6v8.6h-2.1v-11.7H1129.1z"/>
				<path class="st0" d="M1143.5,222.9c1.8,0,3.2,0.5,4.3,1.6c1.1,1.1,1.7,2.5,1.7,4.3s-0.6,3.2-1.7,4.2c-1.1,1.1-2.5,1.6-4.3,1.6
					h-3.8v-11.7L1143.5,222.9L1143.5,222.9z M1141.9,232.7h1.7c1.1,0,2-0.4,2.7-1.1c0.6-0.7,1-1.6,1-2.8s-0.3-2.1-1-2.8
					s-1.6-1.1-2.7-1.1h-1.7V232.7z"/>
				<path class="st0" d="M1154.8,222.9h2.7l3.8,11.7h-2.2l-0.8-2.5h-4.3l-0.8,2.5h-2.2L1154.8,222.9z M1154.5,230.5h3.3l-1.6-5
					L1154.5,230.5z"/>
				<path class="st0" d="M1172.1,226.5c0,0.8-0.2,1.5-0.7,2.1s-1.1,1-2,1.2l3.1,4.8h-2.8l-2.6-4.6h-1.6v4.6h-2.1v-11.7h4.3
					c1.4,0,2.5,0.3,3.2,1C1171.7,224.6,1172.1,225.4,1172.1,226.5z M1167.5,228.6c0.8,0,1.4-0.2,1.8-0.5c0.4-0.4,0.6-0.8,0.6-1.4
					c0-0.6-0.2-1-0.5-1.4s-0.9-0.5-1.6-0.5h-2.2v3.9h1.9V228.6z"/>
				<path class="st0" d="M1176.1,222.9l2.6,4.7l2.7-4.7h2.5l-4.2,6.9v4.8h-2.1v-4.8l-4-6.9H1176.1z"/>
				<path class="st0" d="M1188.8,222.9h9.4v1.8h-3.6v9.8h-2.1v-9.8h-3.6v-1.8H1188.8z"/>
				<path class="st0" d="M1201.1,222.9l2.6,4.7l2.7-4.7h2.5l-4.2,6.9v4.8h-2.1v-4.8l-4-6.9H1201.1z"/>
				<path class="st0" d="M1218,223.9c0.7,0.6,1.1,1.6,1.1,2.8s-0.4,2.1-1.1,2.8s-1.8,1-3.1,1h-2v4.2h-2.1V223h4.1
					C1216.2,222.9,1217.3,223.3,1218,223.9z M1214.9,228.5c0.7,0,1.2-0.2,1.5-0.5s0.5-0.8,0.5-1.3s-0.2-1-0.5-1.4s-0.8-0.5-1.5-0.5
					h-2v3.7H1214.9z"/>
				<path class="st0" d="M1225.8,222.7c0.8,0,1.5,0.1,2.1,0.4c0.6,0.3,1.2,0.6,1.7,1.1c1,1.1,1.5,2.6,1.5,4.5c0,2-0.5,3.5-1.5,4.6
					c-0.9,1-2.2,1.5-3.8,1.5c-1.6,0-2.9-0.5-3.8-1.5c-1-1.1-1.5-2.6-1.5-4.6s0.5-3.5,1.5-4.6
					C1222.9,223.2,1224.2,222.7,1225.8,222.7z M1228.9,228.8c0-1.3-0.3-2.4-0.8-3.1c-0.6-0.7-1.3-1.1-2.3-1.1
					c-0.9,0-1.7,0.4-2.3,1.1s-0.8,1.8-0.8,3.1s0.3,2.4,0.8,3.1c0.6,0.7,1.3,1.1,2.3,1.1c0.9,0,1.7-0.4,2.3-1.1
					C1228.6,231.2,1228.9,230.1,1228.9,228.8z"/>
				<path class="st0" d="M1240.8,232.8c-0.5,1.4-1.5,2.1-2.9,2.1c-1.5,0-2.7-0.6-3.6-1.7c-1-1.1-1.5-2.6-1.5-4.4
					c0-1.9,0.5-3.4,1.6-4.5c1-1.1,2.3-1.6,3.9-1.6c1.1,0,2,0.2,2.7,0.7s1.3,1.2,1.7,2.2l-2.2,0.5c-0.6-1-1.4-1.5-2.4-1.5
					c-0.9,0-1.6,0.4-2.2,1.1c-0.6,0.8-0.9,1.8-0.9,3.1c0,1.2,0.3,2.2,0.8,3c0.5,0.7,1.3,1.1,2.2,1.1c0.8,0,1.4-0.2,1.9-0.7
					s0.8-1.2,0.8-2.1V230l-2.6-0.1v-1.4h4.7v6h-1.7L1240.8,232.8z"/>
				<path class="st0" d="M1254.5,226.5c0,0.8-0.2,1.5-0.7,2.1s-1.1,1-2,1.2l3.1,4.8h-2.8l-2.6-4.6h-1.6v4.6h-2.1v-11.7h4.3
					c1.4,0,2.5,0.3,3.2,1C1254.1,224.6,1254.5,225.4,1254.5,226.5z M1249.9,228.6c0.8,0,1.4-0.2,1.8-0.5c0.4-0.4,0.6-0.8,0.6-1.4
					c0-0.6-0.2-1-0.5-1.4s-0.9-0.5-1.6-0.5h-2.2v3.9h1.9V228.6z"/>
				<path class="st0" d="M1260.1,222.9h2.7l3.8,11.7h-2.2l-0.8-2.5h-4.3l-0.8,2.5h-2.2L1260.1,222.9z M1259.7,230.5h3.3l-1.6-5
					L1259.7,230.5z"/>
				<path class="st0" d="M1275.8,223.9c0.7,0.6,1.1,1.6,1.1,2.8s-0.4,2.1-1.1,2.8c-0.7,0.6-1.8,1-3.1,1h-2v4.2h-2.1V223h4.1
					C1274,222.9,1275.1,223.3,1275.8,223.9z M1272.7,228.5c0.7,0,1.2-0.2,1.5-0.5s0.5-0.8,0.5-1.3s-0.2-1-0.5-1.4s-0.8-0.5-1.5-0.5
					h-2v3.7H1272.7z"/>
				<path class="st0" d="M1281.2,222.9v4.9h5.1v-4.9h2.1v11.7h-2.1v-5h-5.1v5h-2.1v-11.7H1281.2z"/>
				<path class="st0" d="M1292.9,222.9l2.6,4.7l2.7-4.7h2.5l-4.2,6.9v4.8h-2.1v-4.8l-4-6.9H1292.9z"/>
			</g>
			<g>
				<rect x="1079.4" y="278.1" class="st0" width="676.9" height="3.2"/>
			</g>
		</g>
	</g>
	<text transform="matrix(1 0 0 1 1080 406.1002)"><tspan x="0" y="0" class="st1 st2">A B C D E F G H I J K L M N O P Q R S T U V W X Y Z</tspan><tspan x="0" y="67.2" class="st1 st2">abcdefghijklmnopqrstuvwxyz</tspan><tspan x="0" y="134.4" class="st1 st2">0123456789</tspan></text>
	<text transform="matrix(1 0 0 1 1081.8591 647.3916)"><tspan x="0" y="0" class="st3 st4">A B C D E F G H I J K L M N O P Q R S T U V W X Y Z</tspan><tspan x="0" y="62.4" class="st3 st4">abcdefghijklmnopqrstuvwxyz</tspan><tspan x="0" y="124.8" class="st3 st4">0123456789</tspan></text>
</g>
<g id="Layer_2">
	<text transform="matrix(1 0 0 1 220 553)" class="st0 st1 st5">Agkui</text>
</g>
</svg>
